HIERARCHY
ROOT joint_0
{
	OFFSET 0.000000 0.000000 0.000000
	CHANNELS 6 Xposition Yposition Zposition Zrotation Yrotation Xrotation 
	JOINT joint_1
	{
		OFFSET 4.520508 -1.939880 86.268921
		CHANNELS 3 Zrotation Yrotation Xrotation
		JOINT joint_2
		{
			OFFSET -4.459717 -0.438538 78.934082
			CHANNELS 3 Zrotation Yrotation Xrotation
			JOINT joint_3
			{
				OFFSET -5.197754 -0.781128 78.796997
				CHANNELS 3 Zrotation Yrotation Xrotation
				JOINT joint_4
				{
					OFFSET 2.952026 -3.710571 109.812988
					CHANNELS 3 Zrotation Yrotation Xrotation
					JOINT joint_5
					{
						OFFSET 24.716797 -5.488037 87.903931
						CHANNELS 3 Zrotation Yrotation Xrotation
						End Site
						{
							OFFSET 0.000000 0.000000 0.000000
						}
					}
				}
				JOINT joint_6
				{
					OFFSET -3.154419 -25.484680 60.934937
					CHANNELS 3 Zrotation Yrotation Xrotation
					JOINT joint_7
					{
						OFFSET -28.997192 -144.472229 -32.671997
						CHANNELS 3 Zrotation Yrotation Xrotation
						JOINT joint_8
						{
							OFFSET 19.867676 -18.614380 -249.897949
							CHANNELS 3 Zrotation Yrotation Xrotation
							JOINT joint_9
							{
								OFFSET 5.281982 -13.816650 -264.993042
								CHANNELS 3 Zrotation Yrotation Xrotation
								End Site
								{
									OFFSET 0.000000 0.000000 0.000000
								}
							}
						}
					}
				}
				JOINT joint_10
				{
					OFFSET 6.494995 21.336792 62.257935
					CHANNELS 3 Zrotation Yrotation Xrotation
					JOINT joint_11
					{
						OFFSET 31.106567 145.200745 -27.007935
						CHANNELS 3 Zrotation Yrotation Xrotation
						JOINT joint_12
						{
							OFFSET 29.119141 24.684326 -248.460083
							CHANNELS 3 Zrotation Yrotation Xrotation
							JOINT joint_13
							{
								OFFSET 21.220093 31.248413 -262.703979
								CHANNELS 3 Zrotation Yrotation Xrotation
								End Site
								{
									OFFSET 0.000000 0.000000 0.000000
								}
							}
						}
					}
				}
			}
		}
	}
	JOINT joint_14
	{
		OFFSET -15.458496 -88.861694 -109.593018
		CHANNELS 3 Zrotation Yrotation Xrotation
		JOINT joint_15
		{
			OFFSET -6.193359 6.837952 -506.710999
			CHANNELS 3 Zrotation Yrotation Xrotation
			JOINT joint_16
			{
				OFFSET -35.096680 13.289795 -435.677025
				CHANNELS 3 Zrotation Yrotation Xrotation
				JOINT joint_17
				{
					OFFSET 158.491211 -33.916565 -71.771002
					CHANNELS 3 Zrotation Yrotation Xrotation
					End Site
					{
						OFFSET 0.000000 0.000000 0.000000
					}
				}
			}
		}
	}
	JOINT joint_18
	{
		OFFSET 23.116943 86.574158 -110.082031
		CHANNELS 3 Zrotation Yrotation Xrotation
		JOINT joint_19
		{
			OFFSET -6.125854 -0.283569 -506.757019
			CHANNELS 3 Zrotation Yrotation Xrotation
			JOINT joint_20
			{
				OFFSET -63.240234 11.589966 -432.537994
				CHANNELS 3 Zrotation Yrotation Xrotation
				JOINT joint_21
				{
					OFFSET 156.074219 -41.487305 -73.077999
					CHANNELS 3 Zrotation Yrotation Xrotation
					End Site
					{
						OFFSET 0.000000 0.000000 0.000000
					}
				}
			}
		}
	}
}
MOTION
Frames: 9
Frame Time: 0.016667
-449.730591 905.979309 1142.286011 9.813274 -0.488586 0.055095 0.605395 -1.118635 -0.745403 0.673666 0.192348 0.189609 0.649092 -0.216469 -0.145924 -0.532997 6.918065 3.109010 0.000000 0.000000 0.000000 2.892194 0.125870 -0.949702 0.230827 0.238257 1.538786 -0.021479 -0.564361 -2.251308 0.000000 0.000000 0.000000 -2.473533 -0.033726 -0.444708 0.048414 0.125176 1.005278 -0.274700 -2.050058 0.041746 0.000000 0.000000 0.000000 -1.949380 -2.661974 -2.175138 -1.872709 2.627770 0.635814 -1.793755 1.726923 -0.440079 0.000000 0.000000 0.000000 0.384532 -2.493801 0.592757 0.409630 3.899451 -0.198068 0.288476 0.458811 0.257131 0.000000 0.000000 0.000000 
-449.918915 905.874756 1142.269043 9.811908 -0.508339 0.053371 0.605982 -1.101122 -0.757212 0.674850 0.187618 0.192067 0.650110 -0.212601 -0.146924 -0.538271 6.924068 3.127560 0.000000 0.000000 0.000000 2.886574 0.126959 -0.951596 0.232164 0.234279 1.554520 -0.020798 -0.573861 -2.250311 0.000000 0.000000 0.000000 -2.466713 -0.030253 -0.443502 0.047324 0.129127 0.997433 -0.273653 -2.051127 0.056529 0.000000 0.000000 0.000000 -1.949537 -2.647712 -2.167598 -1.873300 2.620161 0.632858 -1.794397 1.729511 -0.439804 0.000000 0.000000 0.000000 0.383722 -2.490924 0.596202 0.408821 3.915159 -0.192755 0.288399 0.456616 0.256508 0.000000 0.000000 0.000000 
-450.105042 905.792603 1142.254028 9.808497 -0.531568 0.050094 0.606042 -1.081232 -0.758636 0.674730 0.182709 0.192036 0.650029 -0.208153 -0.147296 -0.543842 6.934090 3.147640 0.000000 0.000000 0.000000 2.884070 0.127990 -0.954339 0.233071 0.231666 1.566185 -0.019797 -0.588066 -2.249101 0.000000 0.000000 0.000000 -2.454864 -0.027745 -0.444599 0.046393 0.130652 0.989866 -0.273122 -2.050954 0.062914 0.000000 0.000000 0.000000 -1.948463 -2.630760 -2.160239 -1.872678 2.615179 0.630480 -1.793871 1.731577 -0.439111 0.000000 0.000000 0.000000 0.383371 -2.484251 0.597967 0.408359 3.931699 -0.183020 0.289241 0.455814 0.256687 0.000000 0.000000 0.000000 
-450.290222 905.726746 1142.239990 9.804037 -0.556876 0.046336 0.604581 -1.059360 -0.753910 0.672661 0.177269 0.191295 0.648138 -0.203103 -0.146380 -0.548943 6.946373 3.166456 0.000000 0.000000 0.000000 2.886806 0.128412 -0.958996 0.233689 0.229827 1.575187 -0.018617 -0.604761 -2.247371 0.000000 0.000000 0.000000 -2.437014 -0.025537 -0.448553 0.045457 0.130133 0.982383 -0.272910 -2.050495 0.064889 0.000000 0.000000 0.000000 -1.947091 -2.612360 -2.153747 -1.871768 2.612252 0.628939 -1.793045 1.732993 -0.438419 0.000000 0.000000 0.000000 0.383728 -2.475743 0.598209 0.408540 3.949533 -0.171115 0.290975 0.455869 0.257511 0.000000 0.000000 0.000000 
-450.477661 905.670654 1142.227051 9.799182 -0.581297 0.043386 0.603371 -1.037371 -0.747139 0.670718 0.173030 0.190326 0.646352 -0.198473 -0.145882 -0.554175 6.958919 3.185560 0.000000 0.000000 0.000000 2.887332 0.128600 -0.963523 0.234266 0.227479 1.583207 -0.017542 -0.620201 -2.246093 0.000000 0.000000 0.000000 -2.419519 -0.024223 -0.451426 0.044501 0.129087 0.974547 -0.273377 -2.052135 0.062215 0.000000 0.000000 0.000000 -1.945336 -2.598312 -2.149588 -1.870265 2.615994 0.628938 -1.791669 1.732173 -0.437955 0.000000 0.000000 0.000000 0.384252 -2.467139 0.597665 0.408905 3.965146 -0.160662 0.292686 0.456938 0.258595 0.000000 0.000000 0.000000 
-450.667206 905.623413 1142.217041 9.794091 -0.604976 0.041586 0.601800 -1.014949 -0.739729 0.668338 0.169264 0.188435 0.644276 -0.194605 -0.143915 -0.559148 6.972668 3.203840 0.000000 0.000000 0.000000 2.887074 0.128858 -0.968787 0.234855 0.224997 1.590567 -0.016627 -0.633854 -2.245886 0.000000 0.000000 0.000000 -2.400487 -0.023347 -0.453411 0.043496 0.127611 0.966175 -0.275004 -2.058030 0.052771 0.000000 0.000000 0.000000 -1.943503 -2.590778 -2.149005 -1.868353 2.631465 0.632357 -1.789881 1.727233 -0.438183 0.000000 0.000000 0.000000 0.385240 -2.456873 0.597324 0.409788 3.975694 -0.154121 0.294364 0.459263 0.259997 0.000000 0.000000 0.000000 
-450.858887 905.584900 1142.208984 9.789244 -0.628092 0.040827 0.600176 -0.990168 -0.731445 0.665855 0.163199 0.187238 0.641985 -0.189800 -0.143225 -0.564690 6.986069 3.223841 0.000000 0.000000 0.000000 2.885369 0.128859 -0.972776 0.235297 0.222554 1.596256 -0.015783 -0.646543 -2.245678 0.000000 0.000000 0.000000 -2.382147 -0.023077 -0.453604 0.042455 0.126137 0.957328 -0.277413 -2.066948 0.039016 0.000000 0.000000 0.000000 -1.941475 -2.587074 -2.150934 -1.866045 2.653416 0.637249 -1.787726 1.720432 -0.438641 0.000000 0.000000 0.000000 0.386209 -2.446073 0.596224 0.410665 3.983598 -0.149530 0.295771 0.463039 0.261660 0.000000 0.000000 0.000000 
-451.056152 905.550781 1142.199951 9.787560 -0.647289 0.040579 0.598042 -0.966576 -0.721018 0.662604 0.159495 0.183754 0.639200 -0.185602 -0.140303 -0.569654 6.995993 3.241231 0.000000 0.000000 0.000000 2.881333 0.128788 -0.977667 0.235804 0.219248 1.602215 -0.015084 -0.657241 -2.245647 0.000000 0.000000 0.000000 -2.366510 -0.023774 -0.455385 0.041584 0.123421 0.950668 -0.279282 -2.073282 0.027328 0.000000 0.000000 0.000000 -1.940527 -2.584855 -2.152554 -1.864869 2.669052 0.640095 -1.786670 1.717209 -0.438831 0.000000 0.000000 0.000000 0.386198 -2.441684 0.594148 0.410607 3.994586 -0.144944 0.296277 0.466776 0.262890 0.000000 0.000000 0.000000 
-451.263092 905.513428 1142.189941 9.792708 -0.661572 0.041080 0.594854 -0.940335 -0.711829 0.658373 0.152946 0.182005 0.635288 -0.179088 -0.138410 -0.575434 6.998459 3.260107 0.000000 0.000000 0.000000 2.872553 0.127674 -0.979723 0.236363 0.214477 1.607670 -0.014523 -0.666563 -2.246745 0.000000 0.000000 0.000000 -2.355621 -0.026562 -0.456926 0.040794 0.119030 0.946496 -0.280245 -2.076302 0.020908 0.000000 0.000000 0.000000 -1.941185 -2.582595 -2.152322 -1.865437 2.672962 0.637957 -1.787395 1.721118 -0.438301 0.000000 0.000000 0.000000 0.384297 -2.447391 0.590969 0.408721 4.012530 -0.140198 0.295056 0.470337 0.263265 0.000000 0.000000 0.000000 
